<?xml version="1.0" encoding="UTF-8" standalone="no"?>
<!DOCTYPE svg PUBLIC "-//W3C//DTD SVG 1.1//EN"
 "http://www.w3.org/Graphics/SVG/1.1/DTD/svg11.dtd">
<!-- Generated by graphviz version 2.47.0 (20210316.0004)
 -->
<!-- Title: dependencies Pages: 1 -->
<svg width="775pt" height="284pt"
 viewBox="0.00 0.00 775.00 284.00" xmlns="http://www.w3.org/2000/svg" xmlns:xlink="http://www.w3.org/1999/xlink">
<g id="graph0" class="graph" transform="scale(1 1) rotate(0) translate(4 280)">
<title>dependencies</title>
<polygon fill="white" stroke="transparent" points="-4,4 -4,-280 771,-280 771,4 -4,4"/>
<text text-anchor="start" x="362.51" y="-42.4" font-family="Times-12" font-weight="bold" font-size="14.00">Legend</text>
<polygon fill="#ffffb3" stroke="transparent" points="149.5,-10 149.5,-30 169.5,-30 169.5,-10 149.5,-10"/>
<text text-anchor="start" x="173.13" y="-15.4" font-family="Times-12" font-size="14.00"> &#160;Declarations</text>
<polygon fill="#8dd3c7" stroke="transparent" points="262.5,-10 262.5,-30 282.5,-30 282.5,-10 262.5,-10"/>
<text text-anchor="start" x="286.23" y="-15.4" font-family="Times-12" font-size="14.00"> &#160;Module</text>
<polygon fill="#80b1d3" stroke="transparent" points="348.5,-10 348.5,-30 368.5,-30 368.5,-10 348.5,-10"/>
<text text-anchor="start" x="372.28" y="-15.4" font-family="Times-12" font-size="14.00"> &#160;Bootstrap</text>
<polygon fill="#fdb462" stroke="transparent" points="445.5,-10 445.5,-30 465.5,-30 465.5,-10 445.5,-10"/>
<text text-anchor="start" x="469.17" y="-15.4" font-family="Times-12" font-size="14.00"> &#160;Providers</text>
<polygon fill="#fb8072" stroke="transparent" points="541.5,-10 541.5,-30 561.5,-30 561.5,-10 541.5,-10"/>
<text text-anchor="start" x="565.23" y="-15.4" font-family="Times-12" font-size="14.00"> &#160;Exports</text>
<g id="clust1" class="cluster">
<title>cluster_Iso18013Module</title>
<polygon fill="none" stroke="black" stroke-dasharray="1,5" points="8,-70 8,-268 759,-268 759,-70 8,-70"/>
</g>
<g id="clust4" class="cluster">
<title>cluster_Iso18013Module_exports</title>
<polygon fill="none" stroke="black" points="280,-208 280,-260 410,-260 410,-208 280,-208"/>
</g>
<g id="clust6" class="cluster">
<title>cluster_Iso18013Module_providers</title>
<polygon fill="none" stroke="black" points="410,-78 410,-130 751,-130 751,-78 410,-78"/>
</g>
<g id="clust3" class="cluster">
<title>cluster_Iso18013Module_imports</title>
<polygon fill="none" stroke="black" points="16,-78 16,-130 402,-130 402,-78 16,-78"/>
</g>
<!-- CryptoModule -->
<g id="node1" class="node">
<title>CryptoModule</title>
<polygon fill="#8dd3c7" stroke="black" points="394.44,-122 391.44,-126 370.44,-126 367.44,-122 295.56,-122 295.56,-86 394.44,-86 394.44,-122"/>
<text text-anchor="middle" x="345" y="-99.8" font-family="Times,serif" font-size="14.00">CryptoModule</text>
</g>
<!-- Iso18013Module -->
<g id="node4" class="node">
<title>Iso18013Module</title>
<polygon fill="#8dd3c7" stroke="black" points="400.66,-187 397.66,-191 376.66,-191 373.66,-187 289.34,-187 289.34,-151 400.66,-151 400.66,-187"/>
<text text-anchor="middle" x="345" y="-164.8" font-family="Times,serif" font-size="14.00">Iso18013Module</text>
</g>
<!-- CryptoModule&#45;&gt;Iso18013Module -->
<g id="edge1" class="edge">
<title>CryptoModule&#45;&gt;Iso18013Module</title>
<path fill="none" stroke="black" d="M345,-122.11C345,-122.11 345,-140.99 345,-140.99"/>
<polygon fill="black" stroke="black" points="341.5,-140.99 345,-150.99 348.5,-140.99 341.5,-140.99"/>
</g>
<!-- PresentationsModule -->
<g id="node2" class="node">
<title>PresentationsModule</title>
<polygon fill="#8dd3c7" stroke="black" points="278.2,-122 275.2,-126 254.2,-126 251.2,-122 143.8,-122 143.8,-86 278.2,-86 278.2,-122"/>
<text text-anchor="middle" x="211" y="-99.8" font-family="Times,serif" font-size="14.00">PresentationsModule</text>
</g>
<!-- PresentationsModule&#45;&gt;Iso18013Module -->
<g id="edge2" class="edge">
<title>PresentationsModule&#45;&gt;Iso18013Module</title>
<path fill="none" stroke="black" d="M211,-122.02C211,-139.37 211,-163 211,-163 211,-163 279.34,-163 279.34,-163"/>
<polygon fill="black" stroke="black" points="279.34,-166.5 289.34,-163 279.34,-159.5 279.34,-166.5"/>
</g>
<!-- SessionModule -->
<g id="node3" class="node">
<title>SessionModule</title>
<polygon fill="#8dd3c7" stroke="black" points="126.33,-122 123.33,-126 102.33,-126 99.33,-122 23.67,-122 23.67,-86 126.33,-86 126.33,-122"/>
<text text-anchor="middle" x="75" y="-99.8" font-family="Times,serif" font-size="14.00">SessionModule</text>
</g>
<!-- SessionModule&#45;&gt;Iso18013Module -->
<g id="edge3" class="edge">
<title>SessionModule&#45;&gt;Iso18013Module</title>
<path fill="none" stroke="black" d="M75,-122.28C75,-143.32 75,-175 75,-175 75,-175 279.06,-175 279.06,-175"/>
<polygon fill="black" stroke="black" points="279.06,-178.5 289.06,-175 279.06,-171.5 279.06,-178.5"/>
</g>
<!-- Iso18013Service  -->
<g id="node5" class="node">
<title>Iso18013Service </title>
<polygon fill="#fb8072" stroke="black" points="401.58,-252 288.42,-252 288.42,-216 401.58,-216 401.58,-252"/>
<text text-anchor="middle" x="345" y="-229.8" font-family="Times,serif" font-size="14.00">Iso18013Service </text>
</g>
<!-- Iso18013Module&#45;&gt;Iso18013Service  -->
<g id="edge4" class="edge">
<title>Iso18013Module&#45;&gt;Iso18013Service </title>
<path fill="none" stroke="black" stroke-dasharray="5,2" d="M345,-187.11C345,-187.11 345,-205.99 345,-205.99"/>
<polygon fill="black" stroke="black" points="341.5,-205.99 345,-215.99 348.5,-205.99 341.5,-205.99"/>
</g>
<!-- Iso18013Service -->
<g id="node6" class="node">
<title>Iso18013Service</title>
<ellipse fill="#fdb462" stroke="black" cx="667" cy="-104" rx="75.87" ry="18"/>
<text text-anchor="middle" x="667" y="-99.8" font-family="Times,serif" font-size="14.00">Iso18013Service</text>
</g>
<!-- Iso18013Service&#45;&gt;Iso18013Module -->
<g id="edge5" class="edge">
<title>Iso18013Service&#45;&gt;Iso18013Module</title>
<path fill="none" stroke="black" d="M667,-122.28C667,-143.32 667,-175 667,-175 667,-175 410.72,-175 410.72,-175"/>
<polygon fill="black" stroke="black" points="410.72,-171.5 400.72,-175 410.72,-178.5 410.72,-171.5"/>
</g>
<!-- WebhookService -->
<g id="node7" class="node">
<title>WebhookService</title>
<ellipse fill="#fdb462" stroke="black" cx="496" cy="-104" rx="77.57" ry="18"/>
<text text-anchor="middle" x="496" y="-99.8" font-family="Times,serif" font-size="14.00">WebhookService</text>
</g>
<!-- WebhookService&#45;&gt;Iso18013Module -->
<g id="edge6" class="edge">
<title>WebhookService&#45;&gt;Iso18013Module</title>
<path fill="none" stroke="black" d="M496,-122.02C496,-139.37 496,-163 496,-163 496,-163 410.8,-163 410.8,-163"/>
<polygon fill="black" stroke="black" points="410.8,-159.5 400.8,-163 410.8,-166.5 410.8,-159.5"/>
</g>
</g>
</svg>
